# xmcd
#
# Track frame offsets:
#	150
#	22418
#	40972
#	66098
#	84943
#	103140
#	120095
#
# Disc length: 1830 seconds
#
# Revision: 1
# Processed by: cddbd v1.5.2PL0 Copyright (c) Steve Scherf et al.
# Submitted via: audiograbber 1.83.01
#
DISCID=54072407
DTITLE=X-Point - Take It With The Blues
DYEAR=2010
DGENRE=Blues
TTITLE0=Born To Loose
TTITLE1=I Pray For You
TTITLE2=Rain
TTITLE3=On The Street Again
TTITLE4=Voodoo-Mama
TTITLE5=Let's Play Rock
TTITLE6=Desperado
EXTD=
EXTT0=
EXTT1=
EXTT2=
EXTT3=
EXTT4=
EXTT5=
EXTT6=
PLAYORDER=
